<?xml version="1.0" encoding="UTF-8"?>
<svg version="1.1" xmlns="http://www.w3.org/2000/svg" width="493" height="493">
<path d="M0 0 C162.69 0 325.38 0 493 0 C493 162.69 493 325.38 493 493 C330.31 493 167.62 493 0 493 C0 330.31 0 167.62 0 0 Z " fill="#BF312D" transform="translate(0,0)"/>
<path d="M0 0 C103.95 0 207.9 0 315 0 C315 78.65454545 315 78.65454545 304.06640625 90.0078125 C295.60945477 97.17682458 285.28922168 100.97586196 274.203125 100.48046875 C261.95293179 98.64293977 253.56112189 91.80905604 246.32421875 82.1875 C242.50401015 75.87683093 241.47133432 70.9160836 241.5625 63.625 C241.57385986 62.35982544 241.57385986 62.35982544 241.58544922 61.0690918 C241.74802875 54.94862508 242.4936311 50.14485904 246 45 C246.42410156 44.32066406 246.84820312 43.64132813 247.28515625 42.94140625 C252.56639445 35.15930317 259.86034974 29.40693727 269 27 C272.07821917 26.63410226 275.09135058 26.62261841 278.1875 26.6875 C278.96802734 26.68427734 279.74855469 26.68105469 280.55273438 26.67773438 C284.80748627 26.71743096 288.12149623 27.04908929 292 29 C292 29.33 292 29.66 292 30 C291.16597656 30.07476562 290.33195312 30.14953125 289.47265625 30.2265625 C281.71381911 31.1330933 275.77206477 32.52713513 270 38 C264.86692574 44.62009299 264.21220328 51.88569378 265 60 C266.98844941 67.0074874 271.8036007 71.33619871 277.796875 75.140625 C283.38806572 77.32158592 290.79913482 76.87341437 296.51953125 75.3125 C302.3640254 72.63051416 305.66474418 68.34820852 308.8125 62.8125 C310.80780978 56.40650546 311.21281408 49.93195668 308.4375 43.6875 C305.99184879 39.51302639 302.81754171 36.89329477 299 34 C298.05898438 33.236875 297.11796875 32.47375 296.1484375 31.6875 C273.30333732 13.30699729 248.29547279 6.1223979 219.2109375 8.28125 C192.50620785 11.41589095 166.502657 26.7683412 149.69677734 47.61669922 C139.74423165 60.47006143 133.0895806 73.7760485 127 89 C85.09 89 43.18 89 0 89 C0 59.63 0 30.26 0 0 Z " fill="#F3A92D" transform="translate(89,172)"/>
<path d="M0 0 C41.58 0 83.16 0 126 0 C124 9 124 9 123 11 C82.41 11 41.82 11 0 11 C0 7.37 0 3.74 0 0 Z " fill="#F3A92D" transform="translate(89,264)"/>
<path d="M0 0 C40.26 0 80.52 0 122 0 C122 8 122 8 121 10 C81.07 10 41.14 10 0 10 C0 6.7 0 3.4 0 0 Z " fill="#F3A92E" transform="translate(89,278)"/>
<path d="M0 0 C39.93 0 79.86 0 121 0 C121 2.97 121 5.94 121 9 C81.07 9 41.14 9 0 9 C0 6.03 0 3.06 0 0 Z " fill="#F2A62E" transform="translate(89,291)"/>
<path d="M0 0 C40.26 0 80.52 0 122 0 C122.495 3.465 122.495 3.465 123 7 C82.41 7 41.82 7 0 7 C0 4.69 0 2.38 0 0 Z " fill="#F0A12E" transform="translate(89,313)"/>
<path d="M0 0 C39.93 0 79.86 0 121 0 C121 2.31 121 4.62 121 7 C81.07 7 41.14 7 0 7 C0 4.69 0 2.38 0 0 Z " fill="#F4AA2E" transform="translate(89,303)"/>
<path d="M0 0 C40.92 0 81.84 0 124 0 C124.495 2.97 124.495 2.97 125 6 C83.75 6 42.5 6 0 6 C0 4.02 0 2.04 0 0 Z " fill="#F1A42D" transform="translate(89,323)"/>
<path d="M0 0 C41.91 0 83.82 0 127 0 C127.495 2.475 127.495 2.475 128 5 C85.76 5 43.52 5 0 5 C0 3.35 0 1.7 0 0 Z " fill="#F1A32D" transform="translate(89,332)"/>
<path d="M0 0 C42.57 0 85.14 0 129 0 C129.33 1.32 129.66 2.64 130 4 C87.1 4 44.2 4 0 4 C0 2.68 0 1.36 0 0 Z " fill="#ED9A2E" transform="translate(89,340)"/>
<path d="M0 0 C43.56 0 87.12 0 132 0 C132.33 0.99 132.66 1.98 133 3 C89.11 3 45.22 3 0 3 C0 2.01 0 1.02 0 0 Z " fill="#E68B2D" transform="translate(89,346)"/>
</svg>
